<?xml version="1.0" standalone="no"?>
<!DOCTYPE svg PUBLIC "-//W3C//DTD SVG 20010904//EN"
 "http://www.w3.org/TR/2001/REC-SVG-20010904/DTD/svg10.dtd">
<svg version="1.0" xmlns="http://www.w3.org/2000/svg"
 width="1040.000000pt" height="1280.000000pt" viewBox="0 0 1040.000000 1280.000000"
 preserveAspectRatio="xMidYMid meet">
<metadata>
Created by potrace 1.15, written by Peter Selinger 2001-2017
</metadata>
<g transform="translate(0.000000,1280.000000) scale(0.100000,-0.100000)"
fill="#000000" stroke="none">
<path d="M4957 12793 c-16 -4 -17 -11 -11 -46 13 -76 17 -72 -70 -75 l-79 -3
6 -129 c3 -71 9 -135 13 -141 4 -8 28 -9 75 -5 l69 7 0 -48 c0 -26 -4 -53 -8
-59 -4 -6 -45 -14 -92 -18 -111 -9 -130 -21 -130 -86 0 -78 -12 -100 -58 -100
-27 0 -45 -7 -60 -23 -43 -45 -28 -71 81 -142 69 -45 134 -126 158 -198 17
-50 17 -53 -1 -81 -18 -29 -18 -31 -1 -55 10 -15 21 -52 25 -83 6 -49 5 -59
-13 -77 -12 -12 -28 -21 -36 -21 -22 0 -33 -29 -28 -72 6 -44 -9 -68 -43 -68
-28 0 -38 -14 -30 -45 7 -28 51 -45 117 -45 47 0 48 -1 53 -32 15 -91 30 -420
30 -628 0 -206 -2 -248 -22 -340 -28 -128 -64 -250 -104 -350 -45 -112 -48
-131 -32 -242 8 -57 11 -129 8 -167 -10 -113 -36 -106 379 -106 288 1 358 3
371 15 14 11 17 29 14 99 -1 47 1 136 6 196 l8 110 -41 89 c-84 180 -130 349
-150 553 -9 90 11 788 23 800 3 3 34 8 70 12 68 7 96 22 96 51 0 22 -18 37
-50 42 -23 3 -25 7 -25 57 0 53 -1 55 -40 76 l-40 21 1 60 c1 47 6 68 24 92
l24 32 -22 23 c-27 29 -27 33 0 104 25 67 105 157 185 209 65 41 80 67 59 98
-14 22 -33 32 -101 52 -28 9 -30 13 -35 71 -3 34 -10 67 -16 73 -17 17 -80 29
-147 30 -53 0 -58 2 -68 27 -5 15 -9 41 -7 57 l3 31 70 0 70 0 8 85 c4 47 6
110 5 140 l-3 55 -60 1 c-33 1 -65 2 -72 3 -7 1 -13 23 -15 59 l-3 57 -160 1
c-88 1 -168 0 -178 -3z"/>
<path d="M7225 12201 c-28 -12 -61 -51 -68 -80 -3 -13 -1 -45 5 -70 8 -37 7
-53 -5 -84 -16 -36 -17 -37 -69 -37 -48 0 -59 -5 -108 -44 l-54 -43 -70 23
c-92 32 -131 31 -152 -1 -21 -31 -13 -60 27 -111 17 -21 45 -68 61 -104 48
-104 50 -250 3 -250 -19 0 -29 -38 -15 -54 8 -10 8 -27 -1 -63 -17 -72 -33
-91 -76 -95 -34 -3 -39 -7 -54 -48 -16 -42 -19 -45 -59 -50 -86 -10 -74 -67
24 -113 31 -15 56 -32 56 -39 0 -6 -16 -57 -35 -112 -18 -56 -64 -198 -100
-316 -115 -370 -212 -542 -442 -780 -78 -82 -83 -90 -106 -170 -14 -47 -28
-101 -32 -120 -4 -19 -15 -49 -26 -65 -25 -43 -40 -112 -25 -124 23 -19 582
-229 650 -245 46 -10 49 -9 72 17 13 15 26 44 30 65 3 20 29 82 57 137 l52
100 6 230 c9 289 28 399 107 605 35 93 238 558 258 592 9 16 14 16 64 3 95
-25 130 -17 130 32 0 15 -10 28 -30 38 -35 18 -37 29 -10 70 26 40 25 50 -10
87 -16 17 -30 33 -30 35 0 15 53 103 74 122 21 20 25 31 20 56 -5 27 1 38 40
81 55 62 139 108 243 134 100 26 120 49 89 108 -15 29 -26 36 -118 76 -56 24
-56 24 -68 82 -16 78 -27 98 -61 118 -16 9 -29 22 -29 27 0 31 33 81 70 104
140 88 12 270 -198 281 -37 2 -76 0 -87 -5z"/>
<path d="M3125 11688 c-27 -12 -93 -39 -145 -60 -52 -22 -101 -47 -107 -56
-20 -25 3 -44 51 -40 23 1 41 -2 43 -9 2 -6 -29 -77 -70 -157 -84 -165 -96
-211 -73 -289 20 -68 64 -110 152 -146 66 -27 69 -29 70 -63 1 -43 10 -58 35
-58 15 0 28 -17 49 -62 35 -74 37 -103 10 -118 -26 -14 -25 -44 0 -86 l21 -32
-33 -31 c-29 -27 -31 -32 -20 -57 12 -25 15 -26 65 -20 29 3 66 8 82 12 l31 6
68 -147 c161 -349 204 -514 215 -824 l8 -196 45 -80 c25 -44 49 -96 52 -115 8
-48 42 -100 64 -100 55 0 646 246 674 280 15 19 15 25 2 62 -8 23 -21 49 -28
58 -8 8 -26 60 -42 115 l-28 100 -102 107 c-158 165 -257 306 -337 478 -42 91
-44 95 -118 303 l-48 137 53 30 c29 17 61 39 71 50 17 18 17 21 1 45 -14 21
-24 25 -54 23 -35 -3 -37 -1 -47 37 -14 58 -22 65 -65 65 -38 0 -39 1 -60 58
-17 43 -20 69 -15 106 5 42 3 50 -14 63 -28 19 -26 43 5 105 52 102 27 217
-61 284 -19 14 -96 48 -172 74 -172 60 -173 60 -173 72 0 6 14 23 30 38 63 59
16 79 -85 38z"/>
<path d="M8896 10654 c-3 -9 3 -32 15 -51 32 -52 44 -50 -211 -44 -149 4 -189
-5 -243 -57 -54 -50 -69 -96 -66 -186 l4 -81 -38 -24 c-32 -21 -37 -29 -32
-50 4 -21 -5 -37 -48 -85 l-53 -59 -37 12 c-33 11 -41 11 -57 -4 -11 -10 -22
-26 -25 -35 -9 -27 -31 -31 -65 -12 -30 17 -32 16 -50 -6 -24 -29 -14 -59 36
-114 41 -46 51 -27 -114 -221 -193 -227 -376 -372 -627 -493 l-151 -73 -58
-81 c-31 -44 -68 -88 -82 -96 -34 -23 -85 -95 -76 -109 17 -30 480 -460 529
-492 23 -15 26 -14 59 18 20 19 42 46 49 60 7 14 45 51 84 84 73 61 90 87 137
215 27 73 105 225 167 325 61 99 158 213 304 358 l149 148 40 -32 c74 -59 120
-73 144 -44 11 13 7 22 -20 57 l-34 41 43 37 43 37 -13 42 -12 42 48 49 c37
38 56 50 84 52 27 2 37 8 39 23 8 43 31 55 106 55 85 0 138 21 183 73 48 55
57 94 49 226 -3 64 -11 136 -16 161 -20 80 5 111 58 74 18 -12 26 -13 37 -4
20 17 19 26 -11 65 -41 55 -223 215 -243 215 -10 0 -22 -7 -25 -16z"/>
<path d="M1270 10523 c-69 -47 -165 -136 -181 -166 -8 -14 2 -44 41 -130 l50
-113 -20 -138 c-26 -177 -50 -428 -50 -522 0 -67 2 -74 29 -96 15 -14 55 -33
87 -43 33 -10 69 -25 81 -33 13 -8 33 -12 46 -8 21 5 192 179 258 262 l26 33
45 -47 c25 -26 96 -117 158 -202 228 -313 330 -440 355 -440 5 0 38 23 73 51
51 42 65 49 77 39 34 -28 158 -264 199 -378 39 -108 49 -123 118 -177 34 -27
95 -82 134 -122 39 -40 79 -73 89 -73 19 0 456 426 506 493 l28 39 -26 39
c-15 22 -37 46 -49 52 -13 7 -44 39 -69 72 -72 94 -120 140 -162 157 -21 9
-78 33 -128 53 -133 55 -258 121 -289 154 l-28 29 66 72 c40 43 66 80 66 94 0
34 -98 180 -191 282 -20 23 -46 62 -58 88 -24 55 -126 165 -194 209 -26 17
-57 45 -67 63 -36 58 -110 115 -206 160 -52 24 -122 64 -157 87 -66 45 -210
101 -352 136 -44 11 -105 29 -135 39 -99 35 -99 35 -170 -15z"/>
<path d="M9645 8990 c-38 -10 -99 -19 -135 -19 -82 -1 -162 -22 -242 -62 -34
-17 -86 -37 -117 -45 -83 -22 -187 -74 -266 -134 -38 -29 -104 -74 -145 -98
-154 -91 -240 -163 -240 -199 0 -8 16 -51 35 -95 20 -45 34 -87 31 -93 -7 -20
-226 -56 -389 -64 -167 -8 -166 -8 -294 -91 -41 -28 -85 -50 -96 -50 -29 0
-107 -48 -107 -66 0 -8 35 -90 78 -182 43 -92 107 -228 141 -302 34 -74 72
-147 84 -162 21 -26 25 -27 60 -17 20 5 45 18 55 29 9 10 70 35 135 55 l118
37 102 116 c102 115 219 224 283 261 l33 20 19 -27 c10 -15 29 -46 42 -69 25
-46 50 -54 93 -31 12 6 160 103 329 215 254 169 312 203 342 203 42 0 46 -6
126 -205 28 -71 57 -136 62 -142 12 -15 203 -18 241 -4 15 6 30 25 40 50 29
71 96 331 132 511 l36 175 87 81 87 82 -19 53 c-26 79 -70 168 -105 217 l-31
42 -83 0 c-45 0 -127 7 -182 15 -136 20 -254 18 -340 -5z"/>
<path d="M625 8693 c-42 -53 -104 -195 -94 -214 13 -25 -39 -139 -62 -139 -23
0 -29 -11 -78 -153 -33 -95 -38 -122 -29 -136 9 -15 7 -26 -12 -57 -27 -47
-60 -139 -60 -170 0 -19 9 -25 58 -40 31 -9 82 -18 112 -19 30 -1 90 -13 134
-28 137 -47 170 -37 221 63 14 27 26 50 28 50 1 0 116 -38 255 -84 271 -91
371 -134 497 -216 95 -62 305 -230 322 -259 20 -33 92 -68 195 -95 53 -14 114
-35 135 -46 21 -11 53 -22 70 -26 30 -6 33 -4 62 53 32 65 186 468 220 577 11
37 18 72 15 77 -9 15 -82 49 -105 49 -12 0 -70 26 -128 57 l-106 57 -185 2
c-210 2 -364 25 -509 73 -82 28 -383 159 -501 218 -61 31 -62 35 -39 115 22
79 10 95 -111 156 -58 30 -109 61 -113 70 -4 10 -43 35 -86 58 l-78 41 -28
-34z"/>
<path d="M10130 6998 c-35 -5 -71 -15 -80 -22 -8 -7 -61 -18 -118 -25 -147
-16 -156 -22 -168 -129 -3 -34 -10 -64 -13 -66 -4 -3 -112 -12 -241 -21 -438
-32 -597 -11 -954 126 -57 22 -60 22 -175 8 -64 -8 -129 -12 -145 -9 -52 9
-114 -1 -121 -18 -9 -21 -7 -622 1 -682 4 -25 10 -50 15 -56 8 -10 71 -13 345
-17 36 0 66 7 100 25 70 36 277 105 402 134 131 31 302 38 587 27 l200 -8 10
-65 c6 -36 15 -71 19 -79 17 -27 75 -41 168 -41 71 0 99 -4 117 -17 17 -11 47
-16 105 -17 l81 -1 8 60 c5 39 4 81 -4 118 -10 49 -10 59 3 70 31 24 33 297 3
297 -20 0 -31 127 -12 148 11 14 12 35 6 110 -4 50 -13 108 -20 127 -14 39
-13 38 -119 23z"/>
<path d="M136 6749 c-13 -42 -16 -127 -5 -175 11 -47 10 -56 -3 -67 -31 -24
-33 -297 -3 -297 20 0 31 -127 12 -148 -25 -29 6 -272 34 -272 40 0 167 24
179 34 8 8 61 18 118 25 147 16 156 22 168 129 3 34 10 64 13 66 4 3 112 12
241 21 438 32 597 11 953 -126 57 -22 63 -22 165 -10 59 8 143 13 188 12 70
-2 83 1 89 16 8 22 8 620 -1 683 -4 25 -10 50 -15 56 -8 10 -71 13 -345 17
-36 0 -66 -7 -100 -25 -70 -36 -277 -105 -402 -134 -131 -31 -302 -38 -587
-27 l-200 8 -10 65 c-6 36 -15 71 -19 79 -17 26 -76 42 -165 42 -59 0 -98 5
-117 16 -41 21 -182 30 -188 12z"/>
<path d="M8021 5623 c-32 -65 -186 -468 -220 -577 -11 -37 -18 -72 -15 -77 9
-15 82 -49 105 -49 12 0 70 -26 128 -57 l106 -57 185 -2 c211 -2 364 -25 512
-74 89 -30 362 -148 488 -212 71 -36 72 -38 49 -120 -22 -78 -10 -94 111 -156
58 -29 109 -61 113 -71 5 -10 44 -35 87 -56 l79 -38 21 24 c37 42 112 209 101
223 -16 19 36 136 61 136 20 0 34 28 84 173 26 78 31 102 22 117 -9 14 -7 26
12 56 27 47 60 139 60 170 0 19 -9 25 -57 40 -32 9 -83 18 -113 19 -30 1 -90
13 -134 28 -137 47 -170 37 -221 -63 -14 -27 -26 -50 -28 -50 -1 0 -115 38
-252 83 -270 90 -376 137 -498 216 -96 63 -308 232 -324 260 -20 33 -92 68
-195 95 -53 14 -114 35 -135 46 -21 11 -53 22 -70 26 -30 6 -33 4 -62 -53z"/>
<path d="M2334 5481 c-23 -11 -43 -23 -45 -28 -2 -5 -57 -26 -121 -47 l-117
-37 -105 -117 c-108 -121 -186 -195 -268 -250 l-47 -32 -19 27 c-10 16 -29 47
-42 71 -19 33 -29 42 -51 42 -26 0 -224 -124 -540 -338 -110 -75 -142 -92
-172 -92 -43 0 -46 5 -127 205 -28 72 -57 136 -62 143 -12 14 -203 17 -241 3
-15 -6 -30 -25 -40 -50 -29 -71 -96 -331 -132 -511 l-36 -174 -87 -82 -87 -82
19 -53 c26 -79 70 -168 105 -217 l31 -42 83 0 c45 0 127 -7 182 -15 140 -20
247 -19 340 5 43 11 106 20 139 20 77 0 158 21 238 61 34 17 86 37 117 45 83
22 187 74 266 134 39 29 104 74 145 98 154 91 240 163 240 199 0 8 -16 51 -35
95 -20 45 -34 86 -32 93 10 24 268 65 422 65 108 1 134 9 249 83 50 31 99 57
110 57 28 0 106 48 106 65 0 8 -18 54 -41 102 -23 49 -84 180 -136 293 -94
206 -136 280 -157 280 -6 0 -30 -9 -52 -19z"/>
<path d="M7267 4353 c-126 -126 -242 -245 -258 -267 l-28 -38 29 -43 c17 -24
38 -46 48 -49 10 -4 42 -37 71 -76 66 -86 125 -142 171 -159 183 -68 363 -158
404 -200 l28 -29 -67 -73 c-60 -65 -66 -76 -61 -103 7 -36 75 -137 164 -244
34 -42 71 -95 82 -119 23 -53 126 -163 193 -206 26 -17 57 -45 67 -63 37 -58
110 -115 209 -161 53 -25 117 -61 143 -79 63 -47 166 -88 338 -135 79 -22 148
-43 153 -46 5 -3 31 -11 59 -19 l51 -13 61 41 c65 45 172 141 188 171 7 14 -3
45 -42 130 l-50 113 20 138 c26 177 50 428 50 522 0 67 -2 74 -29 96 -15 14
-55 33 -87 43 -33 10 -69 25 -81 33 -13 8 -33 12 -46 8 -13 -3 -72 -58 -132
-123 -60 -65 -119 -129 -132 -143 l-23 -24 -36 34 c-19 19 -76 91 -127 160
-260 356 -367 490 -391 490 -6 0 -40 -23 -74 -51 -51 -41 -66 -48 -77 -39 -34
28 -158 264 -199 378 -39 108 -48 122 -122 181 -38 30 -98 85 -134 123 -36 37
-74 68 -84 68 -12 0 -112 -92 -249 -227z"/>
<path d="M2881 4475 c-22 -24 -41 -49 -41 -54 0 -5 -33 -37 -74 -71 -78 -64
-94 -89 -142 -220 -34 -94 -128 -267 -208 -385 -39 -58 -122 -153 -235 -268
-167 -170 -175 -176 -195 -162 -102 75 -142 89 -166 60 -11 -13 -7 -22 20 -57
l34 -41 -43 -37 -43 -37 13 -42 12 -42 -48 -49 c-37 -38 -56 -50 -84 -52 -29
-2 -37 -8 -39 -25 -5 -37 -40 -53 -112 -53 -108 -1 -190 -55 -220 -146 -14
-43 -8 -237 10 -314 20 -80 -5 -111 -58 -74 -18 12 -26 13 -37 4 -20 -17 -19
-26 11 -65 41 -55 223 -215 243 -215 29 0 33 29 10 67 -32 52 -44 50 211 44
149 -4 189 5 243 57 54 50 69 96 66 186 l-4 81 38 24 c32 21 37 29 32 51 -5
21 4 36 47 84 l54 59 37 -12 c33 -11 41 -11 57 4 11 10 22 26 25 35 9 27 31
31 65 12 30 -17 32 -16 50 6 24 29 15 56 -35 114 -41 48 -51 28 111 220 210
248 384 380 695 526 77 37 89 47 129 104 24 35 70 88 101 120 91 90 91 91 21
157 -33 31 -129 121 -213 201 -161 152 -274 250 -288 250 -5 0 -27 -20 -50
-45z"/>
<path d="M6535 3801 c-187 -69 -520 -215 -542 -237 -22 -22 -22 -24 -8 -65 9
-24 22 -50 29 -59 8 -8 26 -60 42 -115 l28 -100 101 -105 c122 -127 177 -198
258 -332 74 -121 117 -219 192 -432 l54 -156 -53 -30 c-29 -17 -61 -39 -71
-50 -16 -18 -17 -21 -1 -44 13 -21 23 -25 53 -23 36 2 38 0 48 -38 14 -58 22
-65 65 -65 38 0 39 -1 60 -57 17 -44 20 -70 15 -107 -5 -42 -3 -50 14 -63 28
-19 26 -43 -5 -105 -52 -103 -28 -216 61 -284 19 -14 96 -48 172 -74 172 -60
173 -60 173 -72 0 -6 -13 -23 -30 -38 -39 -36 -39 -60 -2 -60 24 0 156 49 303
113 66 29 54 72 -17 65 -22 -1 -39 2 -41 9 -2 6 29 77 70 157 84 165 96 211
73 289 -20 68 -64 110 -152 146 -66 27 -69 29 -70 63 -1 43 -10 58 -35 58 -15
0 -28 17 -49 63 -35 73 -37 102 -10 117 26 14 25 44 0 86 l-21 32 33 31 c28
26 31 32 20 55 -13 30 -43 36 -102 19 -71 -20 -74 -19 -108 55 -110 243 -133
296 -160 377 -61 178 -82 302 -91 520 l-8 200 -45 80 c-25 44 -49 96 -52 115
-9 53 -42 100 -68 99 -13 0 -68 -17 -123 -38z"/>
<path d="M3772 3775 c-12 -15 -24 -43 -28 -64 -3 -20 -29 -81 -57 -136 l-52
-100 -6 -230 c-9 -311 -30 -419 -133 -670 -47 -118 -215 -499 -232 -527 -9
-16 -14 -16 -64 -3 -95 25 -130 17 -130 -32 0 -15 10 -28 30 -38 35 -18 36
-24 10 -67 -26 -44 -25 -53 10 -90 17 -17 30 -33 30 -35 0 -15 -53 -103 -74
-122 -21 -20 -25 -31 -20 -56 5 -27 -1 -38 -40 -81 -55 -62 -139 -108 -243
-134 -100 -26 -120 -49 -89 -108 15 -29 26 -36 118 -76 56 -24 56 -24 68 -82
16 -78 27 -98 61 -118 16 -9 29 -22 29 -27 0 -31 -33 -80 -71 -105 -57 -38
-71 -84 -44 -143 23 -52 48 -74 119 -107 73 -33 170 -43 212 -21 61 32 79 73
62 146 -8 37 -7 53 5 84 16 36 17 37 69 37 48 0 59 5 108 44 l54 43 70 -23
c92 -32 131 -31 152 1 21 31 13 60 -27 111 -17 21 -45 68 -61 104 -48 104 -50
250 -3 250 19 0 29 38 15 54 -8 10 -8 27 1 63 17 72 33 91 76 95 34 3 39 7 54
48 16 42 19 45 59 50 86 10 72 71 -25 115 -30 13 -55 28 -55 34 0 6 20 72 45
148 24 76 72 226 106 333 99 315 197 486 403 706 110 118 118 133 152 279 8
39 24 84 34 100 26 43 41 112 26 124 -11 9 -48 24 -321 128 -361 137 -370 140
-403 98z"/>
<path d="M4955 3483 c-38 -2 -75 -9 -83 -15 -10 -8 -12 -35 -10 -97 1 -47 -1
-135 -6 -196 l-8 -110 40 -86 c83 -177 131 -352 151 -556 9 -90 -11 -788 -23
-800 -3 -3 -34 -8 -70 -12 -68 -7 -96 -22 -96 -51 0 -22 18 -37 50 -42 23 -3
25 -7 25 -57 0 -53 1 -55 40 -76 l40 -21 -1 -60 c-1 -47 -6 -68 -24 -92 l-24
-32 22 -23 c27 -29 27 -33 0 -104 -25 -67 -94 -146 -180 -204 -71 -48 -85 -72
-64 -103 14 -22 33 -32 101 -52 28 -9 30 -13 35 -71 3 -34 10 -67 16 -73 17
-17 80 -29 147 -30 53 0 58 -2 68 -27 5 -15 9 -41 7 -57 l-3 -31 -70 0 -70 0
-8 -85 c-4 -47 -6 -110 -5 -140 l3 -55 60 -1 c33 -1 65 -2 72 -3 7 -1 13 -23
15 -58 l3 -58 145 -3 c80 -2 160 0 178 3 33 6 33 7 26 48 -13 76 -17 72 70 75
l79 3 -6 129 c-3 71 -9 135 -13 141 -4 8 -28 9 -75 5 l-69 -7 0 48 c0 26 4 53
8 59 4 6 45 14 92 18 111 9 130 21 130 86 0 78 12 100 58 100 46 0 86 35 80
71 -3 22 -16 33 -128 114 -54 39 -110 115 -131 179 -17 49 -17 52 2 82 19 31
19 32 0 55 -10 13 -21 50 -25 81 -6 49 -5 59 13 77 12 12 28 21 36 21 22 0 33
29 28 72 -6 44 9 68 43 68 28 0 38 14 30 45 -7 28 -50 45 -117 45 -44 0 -48 2
-53 28 -15 73 -38 590 -33 727 8 206 57 426 134 610 40 93 43 118 27 227 -8
57 -11 129 -8 167 10 112 26 106 -313 107 -158 0 -319 -1 -358 -3z"/>
</g>
</svg>
