<?xml version="1.0" encoding="iso-8859-1"?>
<!-- Generator: Adobe Illustrator 19.0.0, SVG Export Plug-In . SVG Version: 6.00 Build 0)  -->
<svg version="1.1" id="Layer_1" xmlns="http://www.w3.org/2000/svg" xmlns:xlink="http://www.w3.org/1999/xlink" x="0px" y="0px"
	 viewBox="0 0 512.003 512.003" style="enable-background:new 0 0 512.003 512.003;" xml:space="preserve">
<circle style="fill:#E88158;" cx="255.995" cy="256.011" r="233.992"/>
<path style="fill:#D37250;" d="M172.952,421.469c-91.381-91.382-91.381-239.54,0-330.922
	c35.167-35.167,78.744-56.784,124.254-64.884c-72.751-12.949-150.451,8.668-206.667,64.884c-91.381,91.381-91.381,239.54,0,330.922
	c56.216,56.216,133.914,77.833,206.667,64.884C251.695,478.252,208.118,456.634,172.952,421.469z"/>
<path style="fill:#666666;" d="M42.976,512.003c-13.349,0-23.878-3.816-31.518-11.457C-6.862,482.226-3.196,447.29,22.356,396.711
	c2.749-5.442,9.391-7.625,14.828-4.876c5.441,2.749,7.625,9.388,4.876,14.828c-29.046,57.494-18.819,74.446-14.993,78.273
	c3.828,3.826,20.78,14.051,78.273-14.993c59.078-29.852,133.904-87.919,205.295-159.31c71.385-71.385,129.448-146.21,159.3-205.286
	c29.055-57.502,18.83-74.455,15.002-78.281c-3.828-3.826-20.777-14.054-78.28,15.002c-5.442,2.751-12.079,0.568-14.83-4.874
	c-2.748-5.441-0.567-12.079,4.874-14.828c50.586-25.561,85.522-29.231,103.847-10.909c18.319,18.322,14.649,53.26-10.909,103.845
	c-30.868,61.081-90.421,137.966-163.393,210.939c-72.981,72.979-149.868,132.538-210.951,163.405
	C85.809,504.545,61.636,512.003,42.976,512.003z"/>
<g>
</g>
<g>
</g>
<g>
</g>
<g>
</g>
<g>
</g>
<g>
</g>
<g>
</g>
<g>
</g>
<g>
</g>
<g>
</g>
<g>
</g>
<g>
</g>
<g>
</g>
<g>
</g>
<g>
</g>
</svg>
