<svg id="Vrstva_1" xmlns="http://www.w3.org/2000/svg" xmlns:xlink="http://www.w3.org/1999/xlink" x="0px" y="0px"
	 width="186.518px" height="47px" viewBox="0 0 186.518 47" enable-background="new 0 0 186.518 47" xml:space="preserve">
<g>
	<path fill="#FFFFFF" d="M138.08,26.465c-0.228-0.504-0.603-0.923-1.123-1.258c-0.525-0.335-1.22-0.627-2.086-0.872
		c-0.869-0.248-1.934-0.548-3.195-0.902c-0.77-0.218-1.358-0.445-1.762-0.681c-0.404-0.237-0.605-0.552-0.605-0.947
		c0-0.453,0.201-0.774,0.605-0.962c0.403-0.187,1.002-0.28,1.791-0.28c0.829,0,1.443,0.152,1.85,0.458
		c0.404,0.306,0.654,0.794,0.754,1.465h3.695c-0.099-1.5-0.631-2.674-1.599-3.521c-0.967-0.847-2.493-1.272-4.586-1.272
		c-1.142,0-2.108,0.113-2.897,0.341c-0.789,0.225-1.43,0.526-1.924,0.902c-0.492,0.374-0.852,0.809-1.08,1.302
		c-0.228,0.493-0.34,1.015-0.34,1.567c0,0.611,0.084,1.164,0.252,1.656c0.168,0.493,0.493,0.947,0.975,1.362
		c0.484,0.413,1.16,0.793,2.027,1.138c0.869,0.346,2.012,0.676,3.432,0.991c0.791,0.178,1.377,0.385,1.762,0.622
		c0.386,0.236,0.578,0.621,0.578,1.152c0,0.475-0.261,0.824-0.785,1.051c-0.523,0.228-1.148,0.341-1.879,0.341
		c-0.866,0-1.571-0.188-2.114-0.562c-0.543-0.375-0.814-0.91-0.814-1.599h-3.963c0.02,0.769,0.192,1.464,0.516,2.086
		c0.327,0.62,0.789,1.154,1.394,1.599c0.602,0.442,1.326,0.783,2.174,1.02s1.795,0.355,2.84,0.355c2.131,0,3.738-0.43,4.822-1.287
		c1.086-0.857,1.627-1.938,1.627-3.239C138.42,27.643,138.307,26.968,138.08,26.465z M121.806,25.207
		c-0.521-0.335-1.217-0.627-2.086-0.872c-0.867-0.248-1.931-0.548-3.195-0.902c-0.77-0.218-1.355-0.445-1.76-0.681
		c-0.404-0.237-0.606-0.552-0.606-0.947c0-0.453,0.202-0.774,0.606-0.962c0.404-0.187,1.002-0.28,1.791-0.28
		c0.828,0,1.444,0.152,1.848,0.458c0.404,0.306,0.656,0.794,0.755,1.465h3.696c-0.098-1.5-0.631-2.674-1.598-3.521
		c-0.967-0.847-2.494-1.272-4.586-1.272c-1.145,0-2.109,0.113-2.898,0.341c-0.789,0.225-1.432,0.526-1.924,0.902
		c-0.492,0.374-0.851,0.809-1.08,1.302c-0.227,0.493-0.34,1.015-0.34,1.567c0,0.611,0.084,1.164,0.252,1.656
		c0.168,0.493,0.493,0.947,0.978,1.362c0.481,0.413,1.157,0.793,2.024,1.138c0.869,0.346,2.012,0.676,3.433,0.991
		c0.788,0.178,1.377,0.385,1.762,0.622c0.385,0.236,0.576,0.621,0.576,1.152c0,0.475-0.261,0.824-0.785,1.051
		c-0.522,0.228-1.149,0.341-1.879,0.341c-0.867,0-1.572-0.188-2.113-0.562c-0.543-0.375-0.814-0.91-0.814-1.599h-3.963
		c0.019,0.769,0.192,1.464,0.517,2.086c0.327,0.62,0.789,1.154,1.391,1.599c0.603,0.442,1.328,0.783,2.176,1.02
		c0.849,0.236,1.795,0.355,2.84,0.355c2.132,0,3.738-0.43,4.822-1.287s1.627-1.938,1.627-3.239c0-0.849-0.112-1.523-0.34-2.026
		C122.704,25.961,122.329,25.542,121.806,25.207z M106.158,19.853c-1.155-1.44-2.856-2.16-5.104-2.16
		c-1.125,0-2.121,0.173-2.988,0.518c-0.869,0.346-1.603,0.844-2.205,1.494c-0.6,0.65-1.061,1.431-1.375,2.338
		c-0.315,0.907-0.474,1.923-0.474,3.047c0,5.286,2.426,7.93,7.278,7.93c1.558,0,2.897-0.404,4.022-1.213
		c1.125-0.81,1.912-1.964,2.367-3.462h-3.965c-0.139,0.513-0.45,0.911-0.932,1.197c-0.483,0.287-1.041,0.429-1.673,0.429
		c-0.946,0-1.711-0.324-2.293-0.976s-0.901-1.529-0.961-2.634h10.031C107.888,23.461,107.31,21.292,106.158,19.853z M103.922,23.937
		h-5.947c0.08-1.005,0.4-1.79,0.963-2.353c0.563-0.562,1.227-0.843,1.996-0.843c0.375,0,0.741,0.064,1.096,0.192
		c0.354,0.129,0.671,0.325,0.945,0.593c0.277,0.266,0.498,0.601,0.666,1.005C103.809,22.935,103.902,23.404,103.922,23.937
		L103.922,23.937z M86.738,17.693c-0.492,0-0.966,0.06-1.42,0.177c-0.452,0.12-0.866,0.278-1.241,0.474
		c-0.375,0.198-0.705,0.439-0.991,0.726c-0.286,0.285-0.498,0.587-0.636,0.901v-7.218h-3.847v19.882h3.847v-8.344
		c0-0.493,0.063-0.951,0.191-1.376c0.129-0.424,0.32-0.798,0.577-1.124s0.572-0.583,0.947-0.77s0.798-0.281,1.271-0.281
		c0.888,0,1.524,0.203,1.908,0.606c0.385,0.405,0.577,1.16,0.577,2.264v9.025h3.875V22.338c0-1.459-0.468-2.599-1.406-3.417
		C89.455,18.102,88.238,17.693,86.738,17.693z M67.623,21.79c0.267-0.325,0.578-0.557,0.933-0.694
		c0.355-0.14,0.739-0.208,1.154-0.208c0.729,0,1.346,0.212,1.849,0.637c0.503,0.424,0.804,1.01,0.903,1.76h3.875
		c-0.06-0.849-0.257-1.619-0.592-2.309c-0.335-0.689-0.793-1.281-1.375-1.774c-0.583-0.493-1.264-0.867-2.042-1.124
		c-0.779-0.256-1.644-0.385-2.59-0.385c-1.024,0-1.958,0.148-2.796,0.444c-0.838,0.295-1.553,0.744-2.145,1.346
		c-0.591,0.601-1.049,1.376-1.375,2.322c-0.325,0.947-0.488,2.071-0.488,3.373c0,1.303,0.163,2.44,0.488,3.418
		c0.325,0.977,0.784,1.795,1.375,2.455c0.592,0.661,1.297,1.154,2.116,1.479c0.817,0.325,1.721,0.487,2.707,0.487
		c0.887,0,1.711-0.139,2.47-0.414s1.436-0.66,2.027-1.153c0.591-0.493,1.08-1.085,1.464-1.774c0.385-0.691,0.626-1.46,0.725-2.308
		v-0.001H72.43c-0.078,0.789-0.384,1.391-0.917,1.805c-0.532,0.413-1.173,0.621-1.923,0.621s-1.41-0.384-1.982-1.152
		c-0.571-0.771-0.857-1.953-0.857-3.552c0-0.789,0.079-1.455,0.236-1.997C67.145,22.549,67.357,22.115,67.623,21.79z M16.997,9.217
		c0-3.794,1.721-7.15,4.364-9.217C9.129,2.802,0,13.744,0,26.827c0,7.944,3.371,15.101,8.754,20.125
		c-1.237-3.761,2.359-7.541,3.671-8.444c2.956,0.516,4.555-0.331,4.979-1.59c-0.147-2.191-0.211-4.193,1.164-6.118
		c0.139-0.301,0.251-0.577,0.346-0.834c-0.204-1.139-2.988-1.331-3.988-1.682c1.103-0.118,3.945,0.221,4.335-1.132
		c-0.103-0.938-0.296-1.896,0.123-3.697c1.663-0.711,3.205-0.053,3.894-0.471c0.721-0.438,1.285-1.953,1.05-2.933
		C20.076,18.588,16.997,14.291,16.997,9.217z"/>
	<path fill="#F37021" d="M182.67,18.078v1.805c-0.906-1.459-2.269-2.189-4.082-2.189c-0.887,0-1.715,0.183-2.484,0.547
		c-0.77,0.365-1.438,0.878-2.012,1.539c-0.572,0.66-1.025,1.459-1.361,2.396c-0.336,0.937-0.502,1.969-0.502,3.092
		c0,0.946,0.111,1.873,0.34,2.78c0.228,0.907,0.591,1.706,1.095,2.396c0.504,0.69,1.164,1.248,1.981,1.674
		c0.818,0.423,1.83,0.635,3.033,0.635c0.947,0,1.779-0.182,2.5-0.547c0.719-0.365,1.219-0.873,1.492-1.523v1.729
		c0,0.967-0.354,1.729-1.063,2.293c-0.711,0.562-1.58,0.844-2.604,0.844h-2.121l-1.273,3.313h3.66c1.008,0,1.955-0.148,2.842-0.443
		c0.888-0.297,1.656-0.727,2.308-1.287c0.651-0.563,1.164-1.263,1.539-2.102c0.375-0.838,0.563-1.811,0.563-2.914V18.078H182.67z
		 M181.857,28.654c-0.621,0.721-1.403,1.08-2.352,1.08s-1.73-0.385-2.353-1.153s-0.932-1.806-0.932-3.106
		c0-2.958,1.094-4.438,3.283-4.438c2.188,0,3.283,1.558,3.283,4.674C182.789,26.953,182.479,27.936,181.857,28.654z M169.645,17.753
		c-0.375,0.039-0.744,0.133-1.108,0.281c-0.365,0.148-0.721,0.36-1.064,0.636c-0.346,0.276-0.676,0.661-0.992,1.154v-1.746h-3.608
		v14.557h3.845v-7.574c0-2.348,1.173-3.521,3.521-3.521c0.355,0,0.709,0.03,1.064,0.089v-3.935h-0.504
		C170.403,17.693,170.02,17.713,169.645,17.753z M158.702,19.779c-0.642-0.661-1.414-1.174-2.32-1.539
		c-0.908-0.364-1.934-0.547-3.078-0.547c-1.164,0-2.203,0.183-3.121,0.547c-0.918,0.365-1.701,0.883-2.354,1.554
		c-0.65,0.67-1.148,1.479-1.492,2.427c-0.346,0.946-0.519,1.991-0.519,3.134c0,1.125,0.168,2.16,0.502,3.106
		c0.337,0.947,0.824,1.757,1.466,2.427c0.641,0.672,1.424,1.193,2.352,1.567c0.928,0.375,1.982,0.563,3.166,0.563
		c1.123,0,2.146-0.184,3.063-0.549c0.916-0.363,1.694-0.882,2.336-1.553c0.643-0.67,1.135-1.475,1.479-2.411
		c0.344-0.937,0.519-1.987,0.519-3.151c-0.002-1.164-0.177-2.218-0.52-3.167C159.836,21.243,159.344,20.439,158.702,19.779z
		 M153.303,29.794c-2.348,0-3.52-1.479-3.52-4.438c0-2.938,1.172-4.406,3.52-4.406s3.521,1.469,3.521,4.406
		C156.822,28.314,155.65,29.794,153.303,29.794z M33.698,0c2.644,2.066,4.364,5.423,4.364,9.217c0,5.074-3.079,9.371-7.33,10.835
		c-0.234,0.979,0.329,2.495,1.05,2.933c0.688,0.418,2.229-0.24,3.893,0.471c0.419,1.802,0.226,2.76,0.123,3.696
		c0.39,1.354,3.233,1.015,4.335,1.133c-1,0.351-3.784,0.543-3.988,1.682c0.094,0.258,0.208,0.533,0.346,0.834
		c1.375,1.924,1.312,3.926,1.163,6.118c0.426,1.259,2.024,2.104,4.98,1.59c1.311,0.903,4.908,4.685,3.671,8.444
		c5.383-5.025,8.753-12.18,8.753-20.125C55.06,13.744,45.931,2.802,33.698,0z M140.305,32.635h4.111v-3.994h-4.111V32.635z"/>
</g>
</svg>
