<?xml version="1.0"?>
<svg version="1.1" id="圖層_1" xmlns="http://www.w3.org/2000/svg" x="0" y="0" viewBox="0 0 100 100" xml:space="preserve"><path d="M69.445 30.555a5.001 5.001 0 0 0-7.071 0L50 42.929 37.626 30.555a5.001 5.001 0 0 0-7.071 7.071L42.929 50 30.555 62.374a5 5 0 1 0 7.072 7.071L50 57.071l12.374 12.374c.977.976 2.256 1.464 3.536 1.464s2.559-.488 3.536-1.464a5 5 0 0 0 0-7.071L57.071 50l12.374-12.374a5 5 0 0 0 0-7.071z" fill="#e15b64"/><path d="M80.75 5h-61.5C11.393 5 5 11.393 5 19.25v61.5C5 88.607 11.393 95 19.25 95h61.5C88.607 95 95 88.607 95 80.75v-61.5C95 11.393 88.607 5 80.75 5zM69.445 62.374a5 5 0 1 1-7.072 7.071L50 57.071 37.626 69.445c-.977.976-2.256 1.464-3.536 1.464s-2.559-.488-3.536-1.464a5 5 0 0 1 0-7.071L42.929 50 30.555 37.626a5 5 0 1 1 7.071-7.071L50 42.929l12.374-12.374a5.001 5.001 0 0 1 7.071 7.071L57.071 50l12.374 12.374z" fill="#e15b64"/><path d="M69.445 30.555a5.001 5.001 0 0 0-7.071 0L50 42.929 37.626 30.555a5.001 5.001 0 0 0-7.071 7.071L42.929 50 30.555 62.374a5 5 0 1 0 7.072 7.071L50 57.071l12.374 12.374c.977.976 2.256 1.464 3.536 1.464s2.559-.488 3.536-1.464a5 5 0 0 0 0-7.071L57.071 50l12.374-12.374a5 5 0 0 0 0-7.071z" fill="#fff"/><metadata xmlns:d="https://loading.io/stock/"><d:name>disable</d:name><d:tags>square,delete,remove,drop,minus,negative,expand,collapse,disable,form</d:tags><d:license>free</d:license><d:slug>m7qg8g</d:slug></metadata></svg>