<svg xmlns="http://www.w3.org/2000/svg" xmlns:xlink="http://www.w3.org/1999/xlink" viewBox="0 0 34 34"><defs><style>.cls-1{fill:#00a34f;}.cls-2{clip-path:url(#clip-path);}</style><clipPath id="clip-path"><path class="cls-1" d="M24.9,13.85l-6.84,9.29a1,1,0,0,1-.68.39,1,1,0,0,1-.75-.2l-4.89-3.91A1,1,0,0,1,11.59,18a1,1,0,0,1,1.4-.15l4.08,3.26,6.22-8.45a1,1,0,0,1,1.76.17A1,1,0,0,1,24.9,13.85ZM18,5.65a12,12,0,1,0,12,12A12,12,0,0,0,18,5.65Z"/></clipPath></defs><title>Asset 1</title><g id="Layer_2" data-name="Layer 2"><g id="Icons"><path class="cls-1" d="M24.9,13.85l-6.84,9.29a1,1,0,0,1-.68.39,1,1,0,0,1-.75-.2l-4.89-3.91A1,1,0,0,1,11.59,18a1,1,0,0,1,1.4-.15l4.08,3.26,6.22-8.45a1,1,0,0,1,1.76.17A1,1,0,0,1,24.9,13.85ZM18,5.65a12,12,0,1,0,12,12A12,12,0,0,0,18,5.65Z"/><g class="cls-2"><rect class="cls-1" width="34" height="34"/></g></g></g></svg>