<?xml version="1.0" encoding="utf-8"?>
<!-- Generator: Adobe Illustrator 24.2.1, SVG Export Plug-In . SVG Version: 6.00 Build 0)  -->
<svg version="1.1" id="Layer_1" xmlns="http://www.w3.org/2000/svg" xmlns:xlink="http://www.w3.org/1999/xlink" x="0px" y="0px"
	 viewBox="0 0 1900 300" style="enable-background:new 0 0 1900 300;" xml:space="preserve">
<style type="text/css">
	.st0{fill:#1B1B38;}
</style>
<g>
	<g>
		<path class="st0" d="M288.5,87.5c-25.3-41.9-71.2-69.9-123.7-69.9C108,17.5,58.9,50.3,35.3,98c-9.5,19.3-14.9,41-14.9,64
			c0,23,5.4,44.7,14.9,64c10.3,20.7,25.4,38.7,43.8,52.3l0.2,0c0-17.3,25-20.8,25-20.8s0-7.9,0-15.6c0-9.7,9.3-11.5,27.1-29.9
			c6-6.2,9.4-10.2,10.7-16.4c1.2-5.6,0.2-10.7-0.9-14c15.1,0,30.2,0.1,45.3,0.1c-0.5,2.8-1.2,8,0.3,13.8
			c5.3,21.3,31.9,24.9,37.4,46.4c0.8,3.1,1.6,8.4,0,15.6c0,0,25,3.5,25,20.8c0.1,0,0.3,0,0.4,0c0.2,0,0.4,0,0.6,0
			c15.3-11.3,28.3-25.5,38.1-41.8c13.1-21.7,20.6-47.2,20.6-74.4C309.2,134.7,301.6,109.2,288.5,87.5z M216,162.4
			c-0.5,8.6-28.5,14.9-51.3,15c-23.1,0.1-51.4-6.4-51.9-15c-0.2-2.9,2.7-6.9,15.3-12.1c-9.4-9.4-15.3-22.3-15.3-36.6
			c0-28.5,23.1-51.6,51.6-51.6S216,85.1,216,113.6c0,14.3-5.8,27.3-15.3,36.6C213.8,155.7,216.2,159.8,216,162.4z"/>
	</g>
	<g>
		<path class="st0" d="M198.1,96.6c-3.2,4-11.5,2.7-18.4-2.9c-7-5.6-10-13.4-6.8-17.4c3.2-4,11.5-2.7,18.4,2.9
			C198.3,84.8,201.3,92.6,198.1,96.6z"/>
	</g>
</g>
<g>
	<path class="st0" d="M469.6,278.5c-13.8,0-26-1.6-36.6-4.9c-10.6-3.2-18.9-10-24.9-20.3c-6.1-10.3-9.1-25.6-9.1-45.9V76.3
		c0-14.9,3-26.5,9.1-34.7c6.1-8.2,14.4-13.9,25.2-17.1c10.7-3.2,23-4.9,36.8-4.9c14.1,0,26.3,1.7,36.6,5.1
		c10.3,3.4,18.2,9.2,23.9,17.3c5.6,8.2,8.5,19.6,8.5,34.3v51.6h-49.1V74.2c0-6.8-0.8-11.9-2.5-15.4c-1.7-3.5-4-5.8-7-7
		c-3-1.1-6.4-1.7-10.4-1.7c-4,0-7.5,0.6-10.6,1.7c-3.1,1.1-5.5,3.5-7.2,7c-1.7,3.5-2.5,8.7-2.5,15.4v151.4c0,6.5,0.8,11.5,2.5,15
		c1.7,3.5,4.1,5.9,7.2,7.2c3.1,1.3,6.6,1.9,10.6,1.9c3.9,0,7.4-0.6,10.4-1.9c3-1.3,5.3-3.7,7-7.2c1.7-3.5,2.5-8.5,2.5-15v-49.5h49.1
		V207c0,20.6-2.8,36-8.5,46.3c-5.6,10.3-13.6,17.1-23.9,20.3C496.3,276.8,483.9,278.5,469.6,278.5z"/>
	<path class="st0" d="M569.8,273.4V23.5h49.1v102.3h41V23.5h49.1v249.9h-49.1V162.2h-41v111.2H569.8z"/>
	<path class="st0" d="M744.4,273.4V23.5h115v34.7h-63.9V125h54.1v38.5h-54.1v76.1h63.9v33.8H744.4z"/>
	<path class="st0" d="M949.1,276.4c-14.9,0-27.7-2.1-38.3-6.3c-10.6-4.2-18.7-11.7-24.3-22.4c-5.6-10.7-8.5-25.8-8.5-45.2v-14.8
		c8.7,0,17.3,0,25.8,0c8.5,0,16.9,0,25.4,0v19c0,10.4,0.8,18.4,2.5,23.9c1.7,5.5,4.1,9.3,7.2,11.4c3.1,2.1,6.8,3.2,11,3.2
		c6.5,0,11.6-2.3,15.4-7c3.8-4.7,5.7-13.7,5.7-27.3c0-10.4-1.6-18.2-4.9-23.5c-3.2-5.2-8.4-9.4-15.4-12.7c-7-3.2-16.1-7.3-27.1-12.1
		c-9.9-4.2-18-9.3-24.5-15.2c-6.5-5.9-11.3-13.4-14.4-22.4c-3.1-9-4.7-20-4.7-33c0-16.3,2.2-29.6,6.6-39.7
		c4.4-10.1,11.7-17.5,22-22.2c10.3-4.7,24.2-7,41.7-7c22.6,0,39.8,4.9,51.8,14.6c12,9.7,18,24.3,18,43.8v30c-8.2,0-16.3,0-24.3,0
		s-16.3,0-24.7,0V96.2c0-12.7-1.5-21.6-4.4-26.6c-3-5.1-8.2-7.6-15.9-7.6c-7.3,0-12.5,2.3-15.6,6.8c-3.1,4.5-4.7,11.8-4.7,22
		c0,9.3,1.9,16.6,5.7,21.8c3.8,5.2,8.7,9.2,14.6,11.8c5.9,2.7,12.3,5.3,19,7.8c12.4,4.8,22.5,9.7,30.4,14.6
		c7.9,4.9,13.7,11.7,17.3,20.3c3.7,8.6,5.5,20.9,5.5,37c0,18-3,32.3-9.1,42.9c-6.1,10.6-14.7,18.1-25.8,22.6
		C977.1,274.1,964,276.4,949.1,276.4z"/>
	<path class="st0" d="M1114.4,276.4c-14.9,0-27.7-2.1-38.3-6.3c-10.6-4.2-18.7-11.7-24.3-22.4c-5.6-10.7-8.5-25.8-8.5-45.2v-14.8
		c8.7,0,17.3,0,25.8,0s16.9,0,25.4,0v19c0,10.4,0.8,18.4,2.5,23.9c1.7,5.5,4.1,9.3,7.2,11.4c3.1,2.1,6.8,3.2,11,3.2
		c6.5,0,11.6-2.3,15.4-7c3.8-4.7,5.7-13.7,5.7-27.3c0-10.4-1.6-18.2-4.9-23.5c-3.2-5.2-8.4-9.4-15.4-12.7c-7-3.2-16.1-7.3-27.1-12.1
		c-9.9-4.2-18-9.3-24.5-15.2c-6.5-5.9-11.3-13.4-14.4-22.4c-3.1-9-4.7-20-4.7-33c0-16.3,2.2-29.6,6.6-39.7
		c4.4-10.1,11.7-17.5,22-22.2c10.3-4.7,24.2-7,41.7-7c22.6,0,39.8,4.9,51.8,14.6c12,9.7,18,24.3,18,43.8v30c-8.2,0-16.3,0-24.3,0
		c-8,0-16.3,0-24.7,0V96.2c0-12.7-1.5-21.6-4.4-26.6c-3-5.1-8.2-7.6-15.9-7.6c-7.3,0-12.5,2.3-15.6,6.8c-3.1,4.5-4.7,11.8-4.7,22
		c0,9.3,1.9,16.6,5.7,21.8c3.8,5.2,8.7,9.2,14.6,11.8c5.9,2.7,12.3,5.3,19,7.8c12.4,4.8,22.5,9.7,30.4,14.6
		c7.9,4.9,13.7,11.7,17.3,20.3c3.7,8.6,5.5,20.9,5.5,37c0,18-3,32.3-9.1,42.9c-6.1,10.6-14.7,18.1-25.8,22.6
		C1142.4,274.1,1129.3,276.4,1114.4,276.4z"/>
	<path class="st0" d="M1216.3,273.4V23.5h88.8c15.8,0,27.8,3.7,36.2,11.2c8.3,7.5,12.5,17.8,12.5,31.1v28.3c0,7.3-1.1,14-3.2,20.1
		c-2.1,6.1-5.3,11.2-9.5,15.4c-3.1,3.1-7,5.5-11.8,7.2c-4.8,1.7-9.4,2.7-14,3v0.4c4.8,0,9.4,0.6,14,1.7c4.5,1.1,8.7,3.4,12.7,6.8
		c4.8,3.7,8.6,8.7,11.4,15c2.8,6.3,4.2,14.2,4.2,23.5v34.3c0,13.5-2.3,24.1-7,31.7s-11.3,12.9-19.9,15.9c-8.6,3-18.8,4.4-30.7,4.4
		H1216.3z M1265.8,130.1h19.9c6.5,0,11.6-2.3,15.4-6.8c3.8-4.5,5.7-12.4,5.7-23.7V74.7c0-8.7-1.6-15-4.9-18.8
		c-3.2-3.8-7.4-5.7-12.5-5.7h-23.7V130.1z M1265.8,247.6h22.8c4.2,0,7.7-0.8,10.4-2.3c2.7-1.5,4.8-4.4,6.3-8.7
		c1.5-4.2,2.3-10.4,2.3-18.6v-29.6c0-11.3-1.9-18.7-5.7-22.2c-3.8-3.5-8.8-5.3-15-5.3h-21.1V247.6z"/>
	<path class="st0" d="M1454.4,278.5c-13.8,0-25.9-1.6-36.4-4.9c-10.4-3.2-18.5-10-24.3-20.3c-5.8-10.3-8.7-25.6-8.7-45.9V76.3
		c0-14.9,2.9-26.5,8.7-34.7c5.8-8.2,14-13.9,24.5-17.1c10.6-3.2,22.8-4.9,36.6-4.9c13.5,0,25.6,1.7,36.2,5.1
		c10.6,3.4,18.9,9.2,24.9,17.3c6.1,8.2,9.1,19.6,9.1,34.3V207c0,20.6-3,36-9.1,46.3c-6.1,10.3-14.4,17.1-24.9,20.3
		C1480.4,276.8,1468.2,278.5,1454.4,278.5z M1454.4,249.7c4.2,0,8-0.7,11.2-2.1c3.2-1.4,5.8-3.9,7.6-7.4c1.8-3.5,2.7-8.4,2.7-14.6
		V74.2c0-6.2-0.9-11.1-2.7-14.6c-1.8-3.5-4.4-6-7.6-7.4c-3.2-1.4-7-2.1-11.2-2.1s-7.9,0.7-11,2.1c-3.1,1.4-5.6,3.9-7.4,7.4
		c-1.8,3.5-2.7,8.4-2.7,14.6v151.4c0,6.2,0.9,11.1,2.7,14.6c1.8,3.5,4.3,6,7.4,7.4C1446.5,249,1450.1,249.7,1454.4,249.7z"/>
	<path class="st0" d="M1623.9,278.5c-13.8,0-25.9-1.6-36.4-4.9c-10.4-3.2-18.5-10-24.3-20.3c-5.8-10.3-8.7-25.6-8.7-45.9V76.3
		c0-14.9,2.9-26.5,8.7-34.7c5.8-8.2,14-13.9,24.5-17.1c10.6-3.2,22.8-4.9,36.6-4.9c13.5,0,25.6,1.7,36.2,5.1
		c10.6,3.4,18.9,9.2,24.9,17.3c6.1,8.2,9.1,19.6,9.1,34.3V207c0,20.6-3,36-9.1,46.3c-6.1,10.3-14.4,17.1-24.9,20.3
		C1649.9,276.8,1637.7,278.5,1623.9,278.5z M1623.9,249.7c4.2,0,8-0.7,11.2-2.1c3.2-1.4,5.8-3.9,7.6-7.4c1.8-3.5,2.7-8.4,2.7-14.6
		V74.2c0-6.2-0.9-11.1-2.7-14.6c-1.8-3.5-4.4-6-7.6-7.4c-3.2-1.4-7-2.1-11.2-2.1s-7.9,0.7-11,2.1c-3.1,1.4-5.6,3.9-7.4,7.4
		c-1.8,3.5-2.7,8.4-2.7,14.6v151.4c0,6.2,0.9,11.1,2.7,14.6c1.8,3.5,4.3,6,7.4,7.4C1616,249,1619.7,249.7,1623.9,249.7z"/>
	<path class="st0" d="M1727.1,273.4V23.5h49.1v249.9H1727.1z M1826,273.4l-47.8-129.8l46.9-120.1h52.4l-51.2,120.1l52.9,129.8H1826z
		"/>
</g>
</svg>
