<?xml version="1.0" encoding="utf-8"?>
<!-- Generator: Adobe Illustrator 24.2.1, SVG Export Plug-In . SVG Version: 6.00 Build 0)  -->
<svg version="1.1" id="Layer_1" xmlns="http://www.w3.org/2000/svg" xmlns:xlink="http://www.w3.org/1999/xlink" x="0px" y="0px"
	 viewBox="0 0 1000 1000" style="enable-background:new 0 0 1000 1000;" xml:space="preserve">
<style type="text/css">
	.st0{fill:#FFFFFF;}
</style>
<g>
	<g>
		<path class="st0" d="M855,220.8C781.5,98.9,647.8,17.4,495.2,17.4c-165.1,0-307.9,95.3-376.5,233.8
			c-27.7,56.1-43.3,119.2-43.3,186c0,66.8,15.6,130,43.4,186c29.9,60.3,73.8,112.4,127.5,152l0.6,0c0-50.3,72.7-60.5,72.7-60.5
			s0-23,0-45.4c0-28.1,27.2-33.4,78.9-87c17.4-18,27.3-29.7,31.2-47.7c3.6-16.4,0.6-31-2.5-40.7c43.9,0.1,87.8,0.2,131.8,0.3
			c-1.6,8.3-3.5,23.2,0.8,40.1c15.5,62,92.9,72.3,108.9,134.9c2.3,9.1,4.7,24.4,0,45.4c0,0,72.7,10.2,72.7,60.5c0.4,0,0.8,0,1.2,0
			c0.6,0,1.2,0,1.7,0c44.5-32.8,82.2-74.2,110.8-121.7c38.1-63.2,60-137.2,60-216.4C915,358,893.1,284,855,220.8z M644.1,438.6
			c-1.4,24.9-83,43.4-149.2,43.6c-67.1,0.2-149.5-18.5-150.9-43.6c-0.5-8.3,7.8-20,44.4-35.3c-27.4-27.2-44.4-64.9-44.4-106.5
			c0-82.9,67.2-150.1,150.1-150.1S644.1,214,644.1,296.8c0,41.6-17,79.3-44.4,106.5C637.6,419.3,644.5,431,644.1,438.6z"/>
	</g>
	<g>
		<path class="st0" d="M592.1,247.4c-9.4,11.6-33.3,7.8-53.6-8.5c-20.2-16.3-29.1-38.9-19.7-50.5c9.4-11.6,33.3-7.8,53.6,8.5
			C592.6,213.1,601.4,235.8,592.1,247.4z"/>
	</g>
</g>
<g>
	<path class="st0" d="M171.9,982.6c-6.7,0-12.7-0.8-17.8-2.4c-5.1-1.6-9.2-4.9-12.1-9.9c-3-5-4.4-12.5-4.4-22.3v-63.8
		c0-7.3,1.5-12.9,4.4-16.9c3-4,7-6.8,12.3-8.3c5.2-1.6,11.2-2.4,17.9-2.4c6.9,0,12.8,0.8,17.8,2.5c5,1.6,8.9,4.5,11.6,8.4
		c2.7,4,4.1,9.5,4.1,16.7v25.1h-23.9v-26.1c0-3.3-0.4-5.8-1.2-7.5c-0.8-1.7-2-2.8-3.4-3.4c-1.4-0.5-3.1-0.8-5-0.8
		c-1.9,0-3.6,0.3-5.1,0.8c-1.5,0.5-2.7,1.7-3.5,3.4c-0.8,1.7-1.2,4.2-1.2,7.5v73.7c0,3.2,0.4,5.6,1.2,7.3c0.8,1.7,2,2.9,3.5,3.5
		c1.5,0.6,3.2,0.9,5.1,0.9c1.9,0,3.6-0.3,5-0.9c1.4-0.6,2.6-1.8,3.4-3.5c0.8-1.7,1.2-4.2,1.2-7.3v-24.1h23.9v15
		c0,10-1.4,17.5-4.1,22.5c-2.7,5-6.6,8.3-11.6,9.9C184.9,981.8,178.9,982.6,171.9,982.6z"/>
	<path class="st0" d="M220.7,980.1V858.4h23.9v49.8h20v-49.8h23.9v121.7h-23.9V926h-20v54.2H220.7z"/>
	<path class="st0" d="M305.8,980.1V858.4h56v16.9h-31.1v32.5H357v18.7h-26.4v37.1h31.1v16.5H305.8z"/>
	<path class="st0" d="M405.4,981.6c-7.3,0-13.5-1-18.6-3.1s-9.1-5.7-11.8-10.9c-2.7-5.2-4.1-12.6-4.1-22v-7.2c4.3,0,8.4,0,12.6,0
		c4.1,0,8.2,0,12.4,0v9.3c0,5.1,0.4,9,1.2,11.6c0.8,2.7,2,4.5,3.5,5.6c1.5,1,3.3,1.5,5.4,1.5c3.2,0,5.7-1.1,7.5-3.4
		c1.9-2.3,2.8-6.7,2.8-13.3c0-5.1-0.8-8.9-2.4-11.4c-1.6-2.5-4.1-4.6-7.5-6.2c-3.4-1.6-7.8-3.5-13.2-5.9c-4.8-2.1-8.8-4.5-11.9-7.4
		c-3.2-2.9-5.5-6.5-7-10.9c-1.5-4.4-2.3-9.7-2.3-16.1c0-8,1.1-14.4,3.2-19.4c2.1-4.9,5.7-8.5,10.7-10.8c5-2.3,11.8-3.4,20.3-3.4
		c11,0,19.4,2.4,25.2,7.1c5.8,4.7,8.8,11.8,8.8,21.3v14.6c-4,0-7.9,0-11.8,0c-3.9,0-7.9,0-12,0v-7.4c0-6.2-0.7-10.5-2.2-13
		c-1.4-2.5-4-3.7-7.7-3.7c-3.6,0-6.1,1.1-7.6,3.3c-1.5,2.2-2.3,5.8-2.3,10.7c0,4.5,0.9,8.1,2.8,10.6c1.9,2.5,4.2,4.5,7.1,5.8
		c2.9,1.3,6,2.6,9.3,3.8c6,2.3,11,4.7,14.8,7.1c3.8,2.4,6.7,5.7,8.4,9.9c1.8,4.2,2.7,10.2,2.7,18c0,8.8-1.5,15.8-4.4,20.9
		c-3,5.1-7.1,8.8-12.6,11C419,980.5,412.7,981.6,405.4,981.6z"/>
	<path class="st0" d="M485.9,981.6c-7.3,0-13.5-1-18.6-3.1s-9.1-5.7-11.8-10.9c-2.7-5.2-4.1-12.6-4.1-22v-7.2c4.3,0,8.4,0,12.6,0
		c4.1,0,8.2,0,12.4,0v9.3c0,5.1,0.4,9,1.2,11.6c0.8,2.7,2,4.5,3.5,5.6c1.5,1,3.3,1.5,5.4,1.5c3.2,0,5.7-1.1,7.5-3.4
		c1.9-2.3,2.8-6.7,2.8-13.3c0-5.1-0.8-8.9-2.4-11.4c-1.6-2.5-4.1-4.6-7.5-6.2c-3.4-1.6-7.8-3.5-13.2-5.9c-4.8-2.1-8.8-4.5-11.9-7.4
		c-3.2-2.9-5.5-6.5-7-10.9c-1.5-4.4-2.3-9.7-2.3-16.1c0-8,1.1-14.4,3.2-19.4c2.1-4.9,5.7-8.5,10.7-10.8c5-2.3,11.8-3.4,20.3-3.4
		c11,0,19.4,2.4,25.2,7.1c5.8,4.7,8.8,11.8,8.8,21.3v14.6c-4,0-7.9,0-11.8,0c-3.9,0-7.9,0-12,0v-7.4c0-6.2-0.7-10.5-2.2-13
		s-4-3.7-7.7-3.7c-3.6,0-6.1,1.1-7.6,3.3c-1.5,2.2-2.3,5.8-2.3,10.7c0,4.5,0.9,8.1,2.8,10.6c1.9,2.5,4.2,4.5,7.1,5.8
		c2.9,1.3,6,2.6,9.3,3.8c6,2.3,11,4.7,14.8,7.1c3.8,2.4,6.7,5.7,8.4,9.9c1.8,4.2,2.7,10.2,2.7,18c0,8.8-1.5,15.8-4.4,20.9
		c-3,5.1-7.1,8.8-12.6,11C499.5,980.5,493.2,981.6,485.9,981.6z"/>
	<path class="st0" d="M535.5,980.1V858.4h43.2c7.7,0,13.6,1.8,17.6,5.5c4,3.6,6.1,8.7,6.1,15.1v13.8c0,3.6-0.5,6.8-1.5,9.8
		c-1,3-2.6,5.5-4.6,7.5c-1.5,1.5-3.4,2.7-5.8,3.5c-2.3,0.8-4.6,1.3-6.8,1.4v0.2c2.3,0,4.6,0.3,6.8,0.8c2.2,0.6,4.3,1.6,6.2,3.3
		c2.3,1.8,4.2,4.2,5.6,7.3c1.4,3.1,2.1,6.9,2.1,11.4v16.7c0,6.6-1.1,11.7-3.4,15.4c-2.3,3.7-5.5,6.3-9.7,7.7
		c-4.2,1.4-9.2,2.2-14.9,2.2H535.5z M559.6,910.3h9.7c3.2,0,5.7-1.1,7.5-3.3c1.9-2.2,2.8-6,2.8-11.5v-12.1c0-4.3-0.8-7.3-2.4-9.2
		c-1.6-1.9-3.6-2.8-6.1-2.8h-11.5V910.3z M559.6,967.5h11.1c2.1,0,3.7-0.4,5-1.1c1.3-0.8,2.3-2.2,3.1-4.2c0.8-2.1,1.1-5.1,1.1-9.1
		v-14.4c0-5.5-0.9-9.1-2.8-10.8c-1.9-1.7-4.3-2.6-7.3-2.6h-10.3V967.5z"/>
	<path class="st0" d="M651.5,982.6c-6.7,0-12.6-0.8-17.7-2.4c-5.1-1.6-9-4.9-11.8-9.9c-2.8-5-4.2-12.5-4.2-22.3v-63.8
		c0-7.3,1.4-12.9,4.2-16.9c2.8-4,6.8-6.8,11.9-8.3c5.1-1.6,11.1-2.4,17.8-2.4c6.6,0,12.5,0.8,17.6,2.5c5.1,1.6,9.2,4.5,12.1,8.4
		c3,4,4.4,9.5,4.4,16.7v63.6c0,10-1.5,17.5-4.4,22.5c-3,5-7,8.3-12.1,9.9C664.1,981.8,658.2,982.6,651.5,982.6z M651.5,968.6
		c2.1,0,3.9-0.3,5.5-1c1.6-0.7,2.8-1.9,3.7-3.6c0.9-1.7,1.3-4.1,1.3-7.1v-73.7c0-3-0.4-5.4-1.3-7.1c-0.9-1.7-2.1-2.9-3.7-3.6
		c-1.6-0.7-3.4-1-5.5-1s-3.8,0.3-5.4,1c-1.5,0.7-2.7,1.9-3.6,3.6c-0.9,1.7-1.3,4.1-1.3,7.1v73.7c0,3,0.4,5.4,1.3,7.1
		c0.9,1.7,2.1,2.9,3.6,3.6C647.6,968.2,649.4,968.6,651.5,968.6z"/>
	<path class="st0" d="M734,982.6c-6.7,0-12.6-0.8-17.7-2.4c-5.1-1.6-9-4.9-11.8-9.9c-2.8-5-4.2-12.5-4.2-22.3v-63.8
		c0-7.3,1.4-12.9,4.2-16.9c2.8-4,6.8-6.8,11.9-8.3c5.1-1.6,11.1-2.4,17.8-2.4c6.6,0,12.5,0.8,17.6,2.5c5.1,1.6,9.2,4.5,12.1,8.4
		c3,4,4.4,9.5,4.4,16.7v63.6c0,10-1.5,17.5-4.4,22.5c-3,5-7,8.3-12.1,9.9C746.7,981.8,740.7,982.6,734,982.6z M734,968.6
		c2.1,0,3.9-0.3,5.5-1c1.6-0.7,2.8-1.9,3.7-3.6c0.9-1.7,1.3-4.1,1.3-7.1v-73.7c0-3-0.4-5.4-1.3-7.1c-0.9-1.7-2.1-2.9-3.7-3.6
		c-1.6-0.7-3.4-1-5.5-1s-3.8,0.3-5.4,1c-1.5,0.7-2.7,1.9-3.6,3.6c-0.9,1.7-1.3,4.1-1.3,7.1v73.7c0,3,0.4,5.4,1.3,7.1
		c0.9,1.7,2.1,2.9,3.6,3.6C730.2,968.2,732,968.6,734,968.6z"/>
	<path class="st0" d="M784.3,980.1V858.4h23.9v121.7H784.3z M832.4,980.1l-23.3-63.2l22.9-58.5h25.5l-24.9,58.5l25.7,63.2H832.4z"/>
</g>
</svg>
