<?xml version="1.0" encoding="utf-8"?>
<!-- Generator: Adobe Illustrator 24.2.1, SVG Export Plug-In . SVG Version: 6.00 Build 0)  -->
<svg version="1.1" id="Layer_1" xmlns="http://www.w3.org/2000/svg" xmlns:xlink="http://www.w3.org/1999/xlink" x="0px" y="0px"
	 viewBox="0 0 1000 1000" style="enable-background:new 0 0 1000 1000;" xml:space="preserve">
<style type="text/css">
	.st0{fill:#010101;}
</style>
<g>
	<g>
		<path class="st0" d="M912.7,298.6C828.4,158.8,675.1,65.4,500,65.4c-189.3,0-353.2,109.3-431.8,268.2
			c-31.8,64.3-49.7,136.7-49.7,213.3c0,76.6,17.9,149.1,49.7,213.4c34.3,69.2,84.6,128.9,146.2,174.4l0.7,0
			c0-57.8,83.4-69.4,83.4-69.4s0-26.4,0-52.1c0-32.2,31.2-38.3,90.5-99.8c19.9-20.6,31.3-34.1,35.7-54.7c4.1-18.8,0.6-35.6-2.8-46.7
			c50.4,0.1,100.8,0.2,151.1,0.3c-1.8,9.5-4,26.6,0.9,46c17.8,71.1,106.5,82.9,124.9,154.8c2.7,10.4,5.3,28,0,52.1
			c0,0,83.4,11.6,83.4,69.4c0.4,0,0.9,0,1.3,0c0.7,0,1.3,0,2,0c51-37.6,94.3-85.1,127.1-139.5c43.7-72.5,68.8-157.4,68.8-248.2
			C981.5,456.1,956.4,371.1,912.7,298.6z M670.8,548.5c-1.6,28.6-95.2,49.8-171.1,50c-77,0.2-171.5-21.3-173.1-50
			c-0.5-9.5,9-22.9,50.9-40.5c-31.4-31.2-50.9-74.4-50.9-122.1c0-95.1,77.1-172.1,172.1-172.1s172.1,77.1,172.1,172.1
			c0,47.8-19.5,91-50.9,122.1C663.4,526.3,671.3,539.7,670.8,548.5z"/>
	</g>
	<g>
		<path class="st0" d="M611.1,329.1c-10.7,13.3-38.2,9-61.5-9.7c-23.2-18.7-33.4-44.7-22.6-58c10.7-13.3,38.2-9,61.5,9.7
			C611.7,289.9,621.9,315.8,611.1,329.1z"/>
	</g>
</g>
</svg>
